<svg width="634" height="109" viewBox="0 0 634 109" fill="none" xmlns="http://www.w3.org/2000/svg">
<g clip-path="url(#clip0_2_782)">
<path d="M507.517 3.49365C511.301 3.49365 514.375 6.55047 514.389 10.3306V21.7349L518.258 19.5024L524.269 16.0356H524.282C527.561 14.1661 531.741 15.2851 533.641 18.5601C535.54 21.8354 534.42 26.0117 531.154 27.9087H531.141L525.13 31.3755L521.243 33.6177L531.125 39.3179H531.139C534.404 41.2148 535.524 45.3912 533.625 48.6665C531.726 51.9415 527.545 53.0605 524.267 51.1909H524.253L514.389 45.5015V56.936C514.361 60.7163 511.301 63.7729 507.517 63.7729C503.732 63.7729 500.658 60.7163 500.645 56.936V45.5034L490.783 51.1909H490.77C487.491 53.0605 483.31 51.9416 481.411 48.6665C479.512 45.3912 480.632 41.2148 483.897 39.3179H483.911L493.793 33.6177L489.907 31.3755L483.896 27.9087H483.882C480.617 26.0117 479.496 21.8354 481.396 18.5601C483.295 15.285 487.475 14.1661 490.754 16.0356H490.768L496.778 19.5024L500.645 21.7329V10.3306C500.672 6.55052 503.732 3.49374 507.517 3.49365Z" fill="url(#paint0_linear_2_782)"/>
<path d="M603.958 108.741H552.315C535.757 108.741 522.272 95.2844 522.272 78.7304C522.272 62.1763 535.743 48.7202 552.315 48.7202H603.958C620.516 48.7202 634.001 62.1763 634.001 78.7304C634.001 95.2844 620.53 108.741 603.958 108.741ZM552.315 62.4493C543.326 62.4493 536.016 69.7505 536.016 78.7304C536.016 87.7102 543.326 95.0114 552.315 95.0114H603.958C612.947 95.0114 620.257 87.7102 620.257 78.7304C620.257 69.7505 612.947 62.4493 603.958 62.4493H552.315Z" fill="#5E74FF"/>
<path d="M263.964 86.5171C260.944 84.6338 256.969 85.5755 254.755 88.3595C253.102 90.4339 251.641 91.8941 250.411 92.9177C248.649 94.3779 246.422 95.1831 244.126 95.1831H205.791C199.725 95.1831 194.793 90.2701 194.793 84.1971V73.5933C194.793 67.5339 199.711 62.6073 205.791 62.6073H244.126C246.422 62.6073 248.649 63.3988 250.411 64.8727C251.641 65.8963 253.102 67.3429 254.755 69.4309C256.969 72.2149 260.944 73.1565 263.964 71.2732C267.488 69.076 268.254 64.3951 265.767 61.2153C257.051 50.0655 249.619 48.9738 247.542 48.9055C247.46 48.9055 247.392 48.9055 247.31 48.9055H205.791C192.129 48.9055 181.062 59.9597 181.062 73.6069V84.2108C181.062 97.8579 192.129 108.912 205.791 108.912H247.31C247.392 108.912 247.46 108.912 247.542 108.912C249.605 108.844 257.037 107.752 265.767 96.6024C268.254 93.4226 267.488 88.7416 263.964 86.5444V86.5171ZM247.064 62.5936H247.323C247.597 62.5936 246.872 62.6209 247.064 62.5936ZM247.323 95.1694H247.064C246.872 95.1421 247.597 95.1694 247.323 95.1694Z" fill="#34343A"/>
<path d="M178.796 55.5169C178.796 51.7366 175.736 48.6797 171.965 48.666C171.965 48.666 171.951 48.666 171.938 48.666C171.924 48.666 171.924 48.666 171.91 48.666H123.724C121.456 48.666 119.325 49.0072 117.344 49.7032C115.363 50.3992 113.601 51.1635 112.057 52.3508C110.513 53.5381 109.229 54.9164 108.218 56.4586C107.193 58.0143 106.538 59.6111 106.251 61.2624C106.251 61.2624 106.21 61.3579 106.155 61.3579C106.114 61.3579 106.087 61.317 106.073 61.276V55.5851C106.073 51.7776 102.985 48.6933 99.1737 48.6933C95.362 48.6933 92.2744 51.7776 92.2744 55.5851V101.849C92.2744 105.657 95.362 108.727 99.1601 108.727C99.1737 108.727 99.1874 108.727 99.2147 108.727C99.6246 108.727 100.021 108.673 100.403 108.604C100.554 108.577 100.704 108.536 100.854 108.495C101.086 108.441 101.319 108.359 101.551 108.277C101.729 108.209 101.906 108.14 102.07 108.072C102.234 107.99 102.398 107.895 102.562 107.799C103.313 107.376 103.969 106.817 104.502 106.148C104.529 106.121 104.543 106.093 104.57 106.066C105.486 104.892 106.059 103.432 106.059 101.835V101.44C106.059 101.44 106.059 101.399 106.059 101.371V72.3848C106.059 70.4879 106.743 68.6318 108.04 67.4445C109.502 66.1071 111.196 65.029 113.095 64.2374C115.923 63.0501 119.038 62.3814 122.358 62.3814H171.951C175.736 62.3678 178.796 59.2972 178.796 55.5169Z" fill="#34343A"/>
<path d="M61.8618 108.658C62.217 108.658 62.5859 108.658 62.9821 108.631C63.2826 108.604 64.7445 108.467 66.4932 107.662C67.7911 107.062 68.7611 106.311 69.4305 105.697C72.5182 102.613 72.4772 97.3995 72.4772 97.3449C72.4772 97.3449 72.4772 97.3176 72.4772 97.3039C72.4772 97.3039 72.4772 97.2903 72.5045 97.2766C72.5045 97.2766 72.5182 97.2766 72.5318 97.2766V97.3039C72.5318 98.655 72.5045 100.006 72.5045 101.357C72.5045 105.015 75.1276 108.385 78.7754 108.699C82.8603 109.054 86.2758 105.847 86.2758 101.848V74.5541C86.2758 72.4115 87.1639 61.7803 80.2782 54.2744C76.9037 50.6033 72.2996 48.6245 66.9441 48.5972H7.65087C3.98945 48.5972 0.614929 51.2174 0.300703 54.8612C-0.0545099 58.9417 3.15607 62.3262 7.15904 62.3262H66.8484C68.16 62.3262 68.966 62.6128 69.5125 62.9676C69.7721 63.1451 69.9224 63.2952 70.1546 63.5272C70.1546 63.5272 71.8761 65.2467 72.2176 67.7715C72.2586 68.058 72.2859 68.3856 72.0946 68.6995C71.7804 69.2181 71.0973 69.3136 70.8924 69.3409H19.2363C17.8291 69.259 11.6265 69.0406 6.06608 74.1583C0.205069 79.549 0.191407 86.8639 0.191407 89.1156C0.191407 91.0126 0.177745 98.8324 6.06608 104.087C9.95975 107.553 14.031 108.372 15.5612 108.577C17.2143 108.795 18.6351 108.768 19.6598 108.686H61.8618V108.658ZM61.8481 94.943H19.6598C16.176 94.6564 13.6485 91.5994 13.9491 88.4333C14.2086 85.6356 16.6132 83.2746 19.6598 83.0563C42.6666 83.0563 47.4347 83.0563 70.4415 83.0563C71.2339 83.0563 71.8761 83.725 71.8761 84.5575C71.8761 90.3575 67.3812 94.9566 61.8345 94.9566L61.8481 94.943Z" fill="#34343A"/>
<path d="M361.895 71.3062C361.881 68.2765 361.375 65.4379 360.378 62.8176C359.354 60.1428 357.96 57.7955 356.184 55.7894C354.408 53.7696 352.345 52.1865 349.981 51.0401C347.618 49.8801 345.186 48.7201 342.344 48.6792H308.121C305.375 48.6655 303.175 49.1432 301.7 49.5662C300.484 49.9211 298.53 50.5625 296.331 51.9954C294.759 53.019 293.475 54.2336 292.492 55.6665C291.672 56.8538 291.18 58.6826 290.879 60.0336L290.852 60.1564C290.852 60.2247 290.784 60.2929 290.702 60.2929C290.62 60.2929 290.579 60.252 290.565 60.1837V60.1292L290.511 42.3469V36.5605C290.743 34.2541 289.65 32.0023 287.655 30.8287C282.259 27.6489 276.712 31.4564 276.712 36.5605V42.3469L276.767 96.0485V101.835C276.534 104.141 277.627 106.393 279.622 107.567C285.018 110.747 290.552 106.939 290.565 101.849V102.558C290.565 102.558 290.565 102.572 290.565 102.586V76.0281V72.2069C290.756 70.9787 291.221 69.1909 291.972 68.2765C292.669 67.4304 293.434 66.7071 294.268 66.1203C295.784 65.0421 297.328 64.3325 298.981 63.7866C302.779 62.5447 306.495 62.3809 308.777 62.4082H337.576C341.716 62.4082 344.079 63.7047 345.992 65.9428C347.918 68.1946 348.055 69.573 348.151 73.285V101.835C348.151 101.835 348.151 101.835 348.151 101.849C348.151 101.862 348.151 101.849 348.151 101.862C348.164 105.642 351.238 108.699 355.023 108.699C358.807 108.699 361.867 105.642 361.895 101.862V71.2925V71.3062Z" fill="#34343A"/>
<path d="M440.914 108.74H431.446C427.716 108.74 424.315 106.857 422.334 103.691L394.245 59.0646C392.236 55.8575 393.206 51.6133 396.43 49.6071C399.641 47.601 403.89 48.57 405.898 51.7907L432.498 94.0424C432.881 94.6428 433.536 95.0113 434.247 95.0113H438.1C438.81 95.0113 439.479 94.6428 439.848 94.0424L466.462 51.7907C468.593 48.3925 473.225 47.4918 476.49 50.0029C479.332 52.1865 479.851 56.2806 477.952 59.3103L450.013 103.691C448.032 106.843 444.63 108.727 440.9 108.727L440.914 108.74Z" fill="#34343A"/>
<path d="M385.803 101.862V60.8933V60.866C385.789 57.0858 382.715 54.0288 378.931 54.0288C375.146 54.0288 372.086 57.0858 372.059 60.866V60.8933V101.862V101.889C372.072 105.67 375.146 108.727 378.931 108.727C382.715 108.727 385.775 105.67 385.803 101.889V101.862Z" fill="#34343A"/>
<path d="M386.182 36.5569C386.182 32.763 383.108 29.6924 379.309 29.6924C375.511 29.6924 372.438 32.763 372.438 36.5569V41.6882C372.438 45.4822 375.511 48.5528 379.309 48.5528C383.108 48.5528 386.182 45.4822 386.182 41.6882V36.5569Z" fill="#34343A"/>
</g>
<defs>
<linearGradient id="paint0_linear_2_782" x1="500.763" y1="15.1312" x2="500.763" y2="38.6935" gradientUnits="userSpaceOnUse">
<stop stop-color="#5E74FF"/>
<stop offset="1" stop-color="#5E74FF"/>
</linearGradient>
<clipPath id="clip0_2_782">
<rect width="634" height="109" fill="white"/>
</clipPath>
</defs>
</svg>
